<svg xmlns="http://www.w3.org/2000/svg" version="1.1" xmlns:xlink="http://www.w3.org/1999/xlink" xmlns:svgjs="http://svgjs.dev/svgjs" width="1000" height="1000" viewBox="0 0 1000 1000"><rect width="1000" height="1000" fill="#102e44"></rect><g transform="matrix(0.7,0,0,0.7,149.57575757575756,414.93831427898454)"><svg viewBox="0 0 396 97" data-background-color="#102e44" preserveAspectRatio="xMidYMid meet" height="244" width="1000" xmlns="http://www.w3.org/2000/svg" xmlns:xlink="http://www.w3.org/1999/xlink"><g id="tight-bounds" transform="matrix(1,0,0,1,0.2400000000000091,-0.19213398747947963)"><svg viewBox="0 0 395.52 97.38426797495895" height="97.38426797495895" width="395.52"><g><svg viewBox="0 0 777.0247935070246 191.31773542191348" height="97.38426797495895" width="395.52"><g transform="matrix(1,0,0,1,381.5047935070246,47.10076577249816)"><svg viewBox="0 0 395.52 97.11620387691717" height="97.11620387691717" width="395.52"><g id="textblocktransform"><svg viewBox="0 0 395.52 97.11620387691717" height="97.11620387691717" width="395.52" id="textblock"><g><svg viewBox="0 0 395.52 62.93631503000983" height="62.93631503000983" width="395.52"><g transform="matrix(1,0,0,1,0,0)"><svg width="395.52" viewBox="3.0799999237060547 -38.650001525878906 246.23546600341797 39.19000244140625" height="62.93631503000983" data-palette-color="#ffffff"><g transform="matrix(1,0,0,1,0,0)"><g><svg width="18.416976928710934" viewBox="1.7799999713897705 -36.36000061035156 74.20999908447266 36.36000061035156" height="9.0234375" data-palette-color="#ffffff" id="scriptelement" x="230.89848812721903" y="-38.650001525878906"><path d="M12.91-30.02L1.78-30.02 1.78-36.36 31.64-36.36 31.64-30.02 20.51-30.02 20.51 0 12.91 0 12.91-30.02ZM36.57 0L36.57-36.36 46.06-36.36 56.07-11.93 56.5-11.93 66.51-36.36 75.99-36.36 75.99 0 68.53 0 68.53-23.67 68.23-23.67 58.82-0.18 53.74-0.18 44.33-23.76 44.03-23.76 44.03 0 36.57 0Z" opacity="1" transform="matrix(1,0,0,1,0,0)" fill="#ffffff" class="undefined-123" data-fill-palette-color="primary" id="p-123"></path></svg></g></g><path d="M3.08-5.08L7.2-11.35Q9.28-10.18 11.41-9.24 13.55-8.3 15.84-7.65 18.14-7.01 20.67-6.67 23.19-6.32 26.05-6.32L26.05-6.32Q29.49-6.32 31.91-6.77 34.33-7.23 35.85-8.02 37.38-8.81 38.07-9.91 38.77-11.01 38.77-12.3L38.77-12.3Q38.77-14.38 37.04-15.59 35.3-16.8 31.69-16.8L31.69-16.8Q30.1-16.8 28.34-16.59 26.59-16.38 24.79-16.14 23-15.89 21.25-15.69 19.51-15.48 17.97-15.48L17.97-15.48Q15.41-15.48 13.05-16.14 10.69-16.8 8.87-18.12 7.06-19.43 5.98-21.41 4.91-23.39 4.91-26.03L4.91-26.03Q4.91-27.59 5.33-29.13 5.76-30.66 6.7-32.07 7.64-33.47 9.13-34.68 10.62-35.89 12.73-36.77 14.84-37.65 17.61-38.15 20.39-38.65 23.93-38.65L23.93-38.65Q26.49-38.65 29.08-38.37 31.67-38.09 34.12-37.57 36.57-37.06 38.84-36.34 41.11-35.62 43.07-34.74L43.07-34.74 39.67-28.49Q38.06-29.2 36.21-29.8 34.35-30.4 32.32-30.83 30.3-31.27 28.14-31.53 25.98-31.79 23.73-31.79L23.73-31.79Q20.53-31.79 18.47-31.32 16.41-30.86 15.19-30.14 13.96-29.42 13.49-28.53 13.01-27.64 13.01-26.76L13.01-26.76Q13.01-25.05 14.55-23.96 16.09-22.88 19.24-22.88L19.24-22.88Q20.51-22.88 22.16-23.06 23.8-23.24 25.62-23.46 27.44-23.68 29.33-23.86 31.23-24.05 33.01-24.05L33.01-24.05Q36.38-24.05 38.98-23.29 41.58-22.53 43.33-21.13 45.09-19.73 46-17.74 46.9-15.75 46.9-13.28L46.9-13.28Q46.9-9.99 45.37-7.41 43.85-4.83 41.03-3.06 38.21-1.29 34.23-0.38 30.25 0.54 25.37 0.54L25.37 0.54Q22.14 0.54 19.07 0.13 15.99-0.27 13.17-1.01 10.35-1.76 7.8-2.8 5.25-3.83 3.08-5.08L3.08-5.08ZM54.44 0L54.44-38.16 62.23-38.16 62.23 0 54.44 0ZM72.09 0L72.09-38.16 91.5-38.16Q95.89-38.16 99.12-37.24 102.34-36.33 104.46-34.59 106.59-32.86 107.62-30.37 108.66-27.88 108.66-24.73L108.66-24.73Q108.66-22.61 108.15-20.69 107.64-18.77 106.57-17.16 105.51-15.55 103.9-14.29 102.29-13.04 100.12-12.21L100.12-12.21 108.42 0 98.95 0 91.77-10.84 91.55-10.84 79.83-10.86 79.83 0 72.09 0ZM79.83-17.55L91.69-17.55Q93.89-17.55 95.54-18.07 97.19-18.58 98.3-19.51 99.41-20.43 99.96-21.77 100.51-23.1 100.51-24.73L100.51-24.73Q100.51-27.93 98.31-29.68 96.11-31.42 91.69-31.42L91.69-31.42 79.83-31.42 79.83-17.55ZM116.84 0L116.84-38.16 124.63-38.16 124.63 0 116.84 0ZM133.05-16.21L133.05-38.16 140.79-38.16 140.79-17.14Q140.79-14.55 141.49-12.54 142.2-10.52 143.61-9.13 145.01-7.74 147.08-7.02 149.16-6.3 151.92-6.3L151.92-6.3Q154.65-6.3 156.74-7.02 158.83-7.74 160.23-9.13 161.64-10.52 162.34-12.54 163.05-14.55 163.05-17.14L163.05-17.14 163.05-38.16 170.79-38.16 170.79-16.21Q170.79-12.45 169.52-9.38 168.25-6.3 165.83-4.1 163.42-1.9 159.91-0.71 156.41 0.49 151.92 0.49L151.92 0.49Q147.43 0.49 143.92-0.71 140.42-1.9 138-4.1 135.59-6.3 134.32-9.38 133.05-12.45 133.05-16.21L133.05-16.21ZM177.87-5.08L181.99-11.35Q184.07-10.18 186.21-9.24 188.34-8.3 190.64-7.65 192.93-7.01 195.46-6.67 197.99-6.32 200.84-6.32L200.84-6.32Q204.28-6.32 206.7-6.77 209.12-7.23 210.64-8.02 212.17-8.81 212.87-9.91 213.56-11.01 213.56-12.3L213.56-12.3Q213.56-14.38 211.83-15.59 210.09-16.8 206.48-16.8L206.48-16.8Q204.89-16.8 203.14-16.59 201.38-16.38 199.58-16.14 197.79-15.89 196.04-15.69 194.3-15.48 192.76-15.48L192.76-15.48Q190.2-15.48 187.84-16.14 185.49-16.8 183.67-18.12 181.85-19.43 180.77-21.41 179.7-23.39 179.7-26.03L179.7-26.03Q179.7-27.59 180.13-29.13 180.55-30.66 181.49-32.07 182.43-33.47 183.92-34.68 185.41-35.89 187.52-36.77 189.64-37.65 192.41-38.15 195.18-38.65 198.72-38.65L198.72-38.65Q201.28-38.65 203.87-38.37 206.46-38.09 208.91-37.57 211.36-37.06 213.63-36.34 215.91-35.62 217.86-34.74L217.86-34.74 214.47-28.49Q212.85-29.2 211-29.8 209.14-30.4 207.12-30.83 205.09-31.27 202.93-31.53 200.77-31.79 198.52-31.79L198.52-31.79Q195.32-31.79 193.26-31.32 191.2-30.86 189.98-30.14 188.76-29.42 188.28-28.53 187.8-27.64 187.8-26.76L187.8-26.76Q187.8-25.05 189.34-23.96 190.88-22.88 194.03-22.88L194.03-22.88Q195.3-22.88 196.95-23.06 198.6-23.24 200.41-23.46 202.23-23.68 204.13-23.86 206.02-24.05 207.8-24.05L207.8-24.05Q211.17-24.05 213.77-23.29 216.37-22.53 218.13-21.13 219.88-19.73 220.79-17.74 221.69-15.75 221.69-13.28L221.69-13.28Q221.69-9.99 220.17-7.41 218.64-4.83 215.82-3.06 213-1.29 209.02-0.38 205.04 0.54 200.16 0.54L200.16 0.54Q196.94 0.54 193.86 0.13 190.78-0.27 187.96-1.01 185.14-1.76 182.59-2.8 180.04-3.83 177.87-5.08L177.87-5.08Z" opacity="1" transform="matrix(1,0,0,1,0,0)" fill="#ffffff" class="undefined-text-0" data-fill-palette-color="primary" id="text-0"></path></svg></g></svg></g><g transform="matrix(1,0,0,1,118.93955447584923,77.79406853703443)"><svg viewBox="0 0 232.209792 19.32213533988274" height="19.32213533988274" width="232.209792"><g transform="matrix(1,0,0,1,0,0)"><svg width="232.209792" viewBox="2.25 -36 439.8119201660156 36.599998474121094" height="19.32213533988274" data-palette-color="#ffffff"><path d="M19.25 0.6L19.25 0.6Q13.95 0.6 10.15-1.68 6.35-3.95 4.3-8.03 2.25-12.1 2.25-17.45L2.25-17.45Q2.25-22.8 4.3-26.9 6.35-31 10.15-33.3 13.95-35.6 19.25-35.6L19.25-35.6Q25.55-35.6 29.58-32.48 33.6-29.35 34.6-23.7L34.6-23.7 27.55-23.7Q26.9-26.55 24.78-28.18 22.65-29.8 19.15-29.8L19.15-29.8Q14.3-29.8 11.55-26.5 8.8-23.2 8.8-17.45L8.8-17.45Q8.8-11.7 11.55-8.43 14.3-5.15 19.15-5.15L19.15-5.15Q22.65-5.15 24.78-6.68 26.9-8.2 27.55-10.9L27.55-10.9 34.6-10.9Q33.6-5.5 29.58-2.45 25.55 0.6 19.25 0.6ZM49.4 0.6L49.4 0.6Q44.75 0.6 42.22-2.3 39.7-5.2 39.7-10.8L39.7-10.8 39.7-24.8 46.05-24.8 46.05-11.4Q46.05-8.2 47.35-6.5 48.65-4.8 51.45-4.8L51.45-4.8Q54.1-4.8 55.82-6.7 57.55-8.6 57.55-12L57.55-12 57.55-24.8 63.95-24.8 63.95 0 58.3 0 57.8-4.2Q56.65-2 54.47-0.7 52.3 0.6 49.4 0.6ZM80.75 0.6L80.75 0.6Q77.45 0.6 74.95-0.48 72.45-1.55 70.95-3.45 69.45-5.35 69.15-7.85L69.15-7.85 75.59-7.85Q75.9-6.4 77.22-5.38 78.55-4.35 80.65-4.35L80.65-4.35Q82.75-4.35 83.72-5.2 84.7-6.05 84.7-7.15L84.7-7.15Q84.7-8.75 83.3-9.33 81.9-9.9 79.4-10.45L79.4-10.45Q77.8-10.8 76.15-11.3 74.5-11.8 73.12-12.58 71.75-13.35 70.9-14.58 70.05-15.8 70.05-17.6L70.05-17.6Q70.05-20.9 72.67-23.15 75.3-25.4 80.05-25.4L80.05-25.4Q84.45-25.4 87.07-23.35 89.7-21.3 90.2-17.7L90.2-17.7 84.15-17.7Q83.59-20.45 80-20.45L80-20.45Q78.2-20.45 77.22-19.75 76.25-19.05 76.25-18L76.25-18Q76.25-16.9 77.7-16.25 79.15-15.6 81.55-15.05L81.55-15.05Q84.15-14.45 86.32-13.73 88.5-13 89.8-11.58 91.09-10.15 91.09-7.5L91.09-7.5Q91.15-5.2 89.9-3.35 88.65-1.5 86.3-0.45 83.95 0.6 80.75 0.6ZM111.34 0L106.99 0Q103.09 0 100.74-1.9 98.39-3.8 98.39-8.65L98.39-8.65 98.39-19.45 94.14-19.45 94.14-24.8 98.39-24.8 99.14-31.45 104.79-31.45 104.79-24.8 111.49-24.8 111.49-19.45 104.79-19.45 104.79-8.6Q104.79-6.8 105.57-6.13 106.34-5.45 108.24-5.45L108.24-5.45 111.34-5.45 111.34 0ZM128.24 0.6L128.24 0.6Q124.64 0.6 121.77-1.05 118.89-2.7 117.22-5.63 115.54-8.55 115.54-12.4L115.54-12.4Q115.54-16.25 117.24-19.18 118.94-22.1 121.81-23.75 124.69-25.4 128.29-25.4L128.29-25.4Q131.84-25.4 134.72-23.75 137.59-22.1 139.27-19.18 140.94-16.25 140.94-12.4L140.94-12.4Q140.94-8.55 139.27-5.63 137.59-2.7 134.69-1.05 131.79 0.6 128.24 0.6ZM128.24-4.95L128.24-4.95Q130.74-4.95 132.59-6.83 134.44-8.7 134.44-12.4L134.44-12.4Q134.44-16.1 132.59-17.98 130.74-19.85 128.29-19.85L128.29-19.85Q125.74-19.85 123.92-17.98 122.09-16.1 122.09-12.4L122.09-12.4Q122.09-8.7 123.92-6.83 125.74-4.95 128.24-4.95ZM153.04 0L146.64 0 146.64-24.8 152.29-24.8 152.84-21.45Q154.04-23.25 156.01-24.33 157.99-25.4 160.59-25.4L160.59-25.4Q166.34-25.4 168.74-20.95L168.74-20.95Q170.09-23 172.36-24.2 174.64-25.4 177.34-25.4L177.34-25.4Q182.19-25.4 184.79-22.5 187.39-19.6 187.39-14L187.39-14 187.39 0 180.99 0 180.99-13.4Q180.99-16.6 179.76-18.3 178.54-20 175.99-20L175.99-20Q173.39-20 171.81-18.1 170.24-16.2 170.24-12.8L170.24-12.8 170.24 0 163.84 0 163.84-13.4Q163.84-16.6 162.59-18.3 161.34-20 158.74-20L158.74-20Q156.19-20 154.61-18.1 153.04-16.2 153.04-12.8L153.04-12.8 153.04 0ZM217.48 0.6L217.48 0.6Q213.63 0.6 210.68-0.73 207.73-2.05 206.03-4.53 204.33-7 204.28-10.55L204.28-10.55 211.03-10.55Q211.13-8.1 212.81-6.43 214.48-4.75 217.43-4.75L217.43-4.75Q219.98-4.75 221.48-5.98 222.98-7.2 222.98-9.25L222.98-9.25Q222.98-11.4 221.66-12.6 220.33-13.8 218.13-14.55 215.93-15.3 213.43-16.15L213.43-16.15Q209.38-17.55 207.26-19.75 205.13-21.95 205.13-25.6L205.13-25.6Q205.08-28.7 206.61-30.93 208.13-33.15 210.78-34.38 213.43-35.6 216.88-35.6L216.88-35.6Q220.38-35.6 223.06-34.35 225.73-33.1 227.26-30.85 228.78-28.6 228.88-25.5L228.88-25.5 222.03-25.5Q221.98-27.35 220.61-28.78 219.23-30.2 216.78-30.2L216.78-30.2Q214.68-30.25 213.26-29.18 211.83-28.1 211.83-26.05L211.83-26.05Q211.83-24.3 212.93-23.28 214.03-22.25 215.93-21.55 217.83-20.85 220.28-20.05L220.28-20.05Q222.88-19.15 225.03-17.95 227.18-16.75 228.48-14.78 229.78-12.8 229.78-9.7L229.78-9.7Q229.78-6.95 228.38-4.6 226.98-2.25 224.23-0.83 221.48 0.6 217.48 0.6ZM247.13 0.6L247.13 0.6Q243.53 0.6 240.66-1.05 237.78-2.7 236.11-5.63 234.43-8.55 234.43-12.4L234.43-12.4Q234.43-16.25 236.13-19.18 237.83-22.1 240.71-23.75 243.58-25.4 247.18-25.4L247.18-25.4Q250.73-25.4 253.61-23.75 256.48-22.1 258.16-19.18 259.83-16.25 259.83-12.4L259.83-12.4Q259.83-8.55 258.16-5.63 256.48-2.7 253.58-1.05 250.68 0.6 247.13 0.6ZM247.13-4.95L247.13-4.95Q249.63-4.95 251.48-6.83 253.33-8.7 253.33-12.4L253.33-12.4Q253.33-16.1 251.48-17.98 249.63-19.85 247.18-19.85L247.18-19.85Q244.63-19.85 242.81-17.98 240.98-16.1 240.98-12.4L240.98-12.4Q240.98-8.7 242.81-6.83 244.63-4.95 247.13-4.95ZM273.08 0L266.68 0 266.68-19.45 263.28-19.45 263.28-24.8 266.68-24.8 266.68-27.7Q266.68-32.2 268.95-34.1 271.23-36 275.13-36L275.13-36 277.88-36 277.88-30.55 276.13-30.55Q274.48-30.55 273.78-29.9 273.08-29.25 273.08-27.7L273.08-27.7 273.08-24.8 278.43-24.8 278.43-19.45 273.08-19.45 273.08 0ZM298.88 0L294.53 0Q290.63 0 288.28-1.9 285.93-3.8 285.93-8.65L285.93-8.65 285.93-19.45 281.68-19.45 281.68-24.8 285.93-24.8 286.68-31.45 292.33-31.45 292.33-24.8 299.03-24.8 299.03-19.45 292.33-19.45 292.33-8.6Q292.33-6.8 293.1-6.13 293.88-5.45 295.78-5.45L295.78-5.45 298.88-5.45 298.88 0ZM316.02 0L309.37 0 302.12-24.8 308.47-24.8 312.77-6.95 317.77-24.8 324.87-24.8 329.87-6.95 334.22-24.8 340.57-24.8 333.27 0 326.62 0 321.32-18.55 316.02 0ZM351.92 0.6L351.92 0.6Q348.72 0.6 346.67-0.43 344.62-1.45 343.62-3.15 342.62-4.85 342.62-6.9L342.62-6.9Q342.62-10.35 345.32-12.5 348.02-14.65 353.42-14.65L353.42-14.65 359.72-14.65 359.72-15.25Q359.72-17.8 358.27-19 356.82-20.2 354.67-20.2L354.67-20.2Q352.72-20.2 351.27-19.28 349.82-18.35 349.47-16.55L349.47-16.55 343.22-16.55Q343.47-19.25 345.05-21.25 346.62-23.25 349.12-24.33 351.62-25.4 354.72-25.4L354.72-25.4Q360.02-25.4 363.07-22.75 366.12-20.1 366.12-15.25L366.12-15.25 366.12 0 360.67 0 360.07-4Q358.97-2 357-0.7 355.02 0.6 351.92 0.6ZM353.37-4.4L353.37-4.4Q356.12-4.4 357.65-6.2 359.17-8 359.57-10.65L359.57-10.65 354.12-10.65Q351.57-10.65 350.47-9.73 349.37-8.8 349.37-7.45L349.37-7.45Q349.37-6 350.47-5.2 351.57-4.4 353.37-4.4ZM378.62 0L372.22 0 372.22-24.8 377.92-24.8 378.52-20.15Q379.87-22.55 382.19-23.98 384.52-25.4 387.67-25.4L387.67-25.4 387.67-18.65 385.87-18.65Q383.77-18.65 382.12-18 380.47-17.35 379.54-15.75 378.62-14.15 378.62-11.3L378.62-11.3 378.62 0ZM403.62 0.6L403.62 0.6Q399.87 0.6 396.97-1 394.07-2.6 392.42-5.5 390.77-8.4 390.77-12.2L390.77-12.2Q390.77-16.05 392.39-19.05 394.02-22.05 396.89-23.73 399.77-25.4 403.67-25.4L403.67-25.4Q407.32-25.4 410.12-23.8 412.92-22.2 414.49-19.43 416.07-16.65 416.07-13.25L416.07-13.25Q416.07-12.7 416.04-12.1 416.02-11.5 415.97-10.85L415.97-10.85 397.12-10.85Q397.32-7.95 399.14-6.3 400.97-4.65 403.57-4.65L403.57-4.65Q405.52-4.65 406.84-5.53 408.17-6.4 408.82-7.8L408.82-7.8 415.32-7.8Q414.62-5.45 412.99-3.53 411.37-1.6 408.99-0.5 406.62 0.6 403.62 0.6ZM403.67-20.2L403.67-20.2Q401.32-20.2 399.52-18.88 397.72-17.55 397.22-14.85L397.22-14.85 409.57-14.85Q409.42-17.3 407.77-18.75 406.12-20.2 403.67-20.2ZM431.71 0.6L431.71 0.6Q428.41 0.6 425.91-0.48 423.41-1.55 421.91-3.45 420.41-5.35 420.11-7.85L420.11-7.85 426.56-7.85Q426.86-6.4 428.19-5.38 429.51-4.35 431.61-4.35L431.61-4.35Q433.71-4.35 434.69-5.2 435.66-6.05 435.66-7.15L435.66-7.15Q435.66-8.75 434.26-9.33 432.86-9.9 430.36-10.45L430.36-10.45Q428.76-10.8 427.11-11.3 425.46-11.8 424.09-12.58 422.71-13.35 421.86-14.58 421.01-15.8 421.01-17.6L421.01-17.6Q421.01-20.9 423.64-23.15 426.26-25.4 431.01-25.4L431.01-25.4Q435.41-25.4 438.04-23.35 440.66-21.3 441.16-17.7L441.16-17.7 435.11-17.7Q434.56-20.45 430.96-20.45L430.96-20.45Q429.16-20.45 428.19-19.75 427.21-19.05 427.21-18L427.21-18Q427.21-16.9 428.66-16.25 430.11-15.6 432.51-15.05L432.51-15.05Q435.11-14.45 437.29-13.73 439.46-13 440.76-11.58 442.06-10.15 442.06-7.5L442.06-7.5Q442.11-5.2 440.86-3.35 439.61-1.5 437.26-0.45 434.91 0.6 431.71 0.6Z" opacity="1" transform="matrix(1,0,0,1,0,0)" fill="#ffffff" class="undefined-text-1" data-fill-palette-color="secondary" id="text-1"></path></svg></g></svg></g></svg></g></svg></g><g><svg viewBox="0 0 366.64704 191.31773542191348" height="191.31773542191348" width="366.64704"><g><svg xmlns="http://www.w3.org/2000/svg" xmlns:xlink="http://www.w3.org/1999/xlink" version="1.1" x="0" y="0" viewBox="5.000964164733887 25.17984962463379 89.99775695800781 46.961151123046875" enable-background="new 0 0 100 100" xml:space="preserve" height="191.31773542191348" width="366.64704" class="icon-icon-0" data-fill-palette-color="accent" id="icon-0"><g fill="#b2fcfb" data-fill-palette-color="accent"><path d="M25.7 47.795l-3.97 5.537c-0.104 0.107-0.939 0.941-0.836 1.359 0.836 3.344-0.836 8.463-1.985 9.822 0 0.104-1.357 1.463-1.357 1.777v5.119c0 0.312 0.209 0.416 0.522 0.521 3.029 0.521 4.389-3.031 4.18-5.537l2.298-7.838 3.239-1.881 0.419-3.029L25.7 47.795z" fill="#b2fcfb" data-fill-palette-color="accent"></path><path d="M59.763 68.379l0.105-2.717 4.283-11.074c-2.403 0.627-4.806 0.73-7.209 0.104-1.15 3.553-0.837 8.254-2.091 11.703v0.209l1.045 5.119c0.104 0.209 0.313 0.418 0.522 0.418h7.419c0.313 0 0.522-0.209 0.522-0.521C64.256 69.738 61.54 69.006 59.763 68.379z" fill="#b2fcfb" data-fill-palette-color="accent"></path><path d="M94.451 33.586l-5.954-1.254-0.314-0.312-0.627-2.09c-0.104-0.105-0.209-0.209-0.313-0.314l-10.761-4.389c-0.627-0.209-0.941 0.314-0.837 0.838l0.611 2.268-2.701-0.18c-0.836-0.104-1.148 0.732-0.627 1.254l1.882 1.986c-2.926-0.629-9.613 0.104-12.748 1.566-6.165 2.926-17.03-0.836-29.569 0.732-2.09 0.312-6.164 2.82-8.567 4.178-4.074 2.404-10.135 10.449-18.389 19.33-1.254 1.045-0.104 3.762 1.357 2.926 17.555-6.896 17.137-17.031 19.225-16.301l3.554 9.822-1.568 7c-0.103 0.104 0 0.314 0 0.418l9.822 10.971c0.104 0.105 0.21 0.105 0.312 0.105h7.629c0.312 0 0.521-0.209 0.521-0.521-0.313-2.822-2.402-3.24-5.328-3.24l-5.434-8.254c3.14-2.76 7.043-7.676 6.536-10.428 10.027 1.455 15.769 4.393 21.362 3.322h0.518l13.795 18.912c0 0.104 0.209 0.209 0.417 0.209h7.419c0.314 0 0.628-0.314 0.522-0.627-0.627-1.881-3.343-3.029-5.537-3.029l-1.254-2.09-7.726-16.35c4.044-2.67 7.611-6.105 10.964-9.459l10.239-1.984c0.105 0 0.21-0.209 0.314-0.314l1.775-3.971C95.078 33.9 94.869 33.586 94.451 33.586z" fill="#b2fcfb" data-fill-palette-color="accent"></path></g></svg></g></svg></g></svg></g><defs></defs></svg><rect width="395.52" height="97.38426797495895" fill="none" stroke="none" visibility="hidden"></rect></g></svg></g></svg>